<svg width="161" height="120" viewBox="0 0 161 120" fill="none" xmlns="http://www.w3.org/2000/svg">
<rect width="161" height="120" fill="#EAF3FF"/>
<path d="M59.0218 76.3568L58.9752 76.4034C58.3452 75.0268 57.9485 73.4634 57.7852 71.7368C57.9485 73.4401 58.3918 74.9801 59.0218 76.3568Z" fill="#2569FF"/>
<path d="M73.9986 56.2199C77.0657 56.2199 79.552 53.7336 79.552 50.6666C79.552 47.5996 77.0657 45.1133 73.9986 45.1133C70.9316 45.1133 68.4453 47.5996 68.4453 50.6666C68.4453 53.7336 70.9316 56.2199 73.9986 56.2199Z" fill="#6DD4FF"/>
<path d="M90.776 36.6666H71.2227C62.7293 36.6666 57.666 41.73 57.666 50.2233V69.7766C57.666 72.32 58.1093 74.5366 58.9727 76.4033C60.9793 80.8366 65.2727 83.3333 71.2227 83.3333H90.776C99.2694 83.3333 104.333 78.27 104.333 69.7766V64.4333V50.2233C104.333 41.73 99.2694 36.6666 90.776 36.6666ZM100.529 61.1666C98.7094 59.6033 95.7693 59.6033 93.9493 61.1666L84.2427 69.4966C82.4227 71.06 79.4827 71.06 77.6627 69.4966L76.8693 68.8433C75.2127 67.3966 72.576 67.2566 70.7094 68.5166L61.9827 74.3733C61.4693 73.0666 61.166 71.55 61.166 69.7766V50.2233C61.166 43.6433 64.6427 40.1666 71.2227 40.1666H90.776C97.356 40.1666 100.833 43.6433 100.833 50.2233V61.4233L100.529 61.1666Z" fill="#2569FF"/>
</svg>
